<svg height="512" viewBox="0 0 55 60" width="512" xmlns="http://www.w3.org/2000/svg"><g id="Page-1" fill="none" fill-rule="evenodd"><g id="008---Parasol" fill-rule="nonzero"><path id="Shape" d="m49.05 49.5c0 5.25-10.74 9.5-24 9.5s-24-4.25-24-9.5c0-3.69 5.3-6.88 13.05-8.46l-4.91 6.88c-.64065028.9002241-.4302241 2.1493497.47000002 2.79.90022418.6406503 2.14934968.4302241 2.78999998-.47l7.12-9.99c1.76-.16 3.59-.25 5.48-.25 13.26 0 24 4.25 24 9.5z" fill="#ff9801"/><path id="Shape" d="m51.38 38.7-9.77-6.97c6.09-8.54 5.56-19.37-1.18-24.18.55.39 1.08.79 1.6 1.2 10.96 8.71 15.16 21.79 9.35 29.95z" fill="#e91e63"/><path id="Shape" d="m42.03 8.75c-.52-.41-1.05-.81-1.6-1.2 2.5473875 1.86941841 4.3189964 4.6097536 4.978 7.7 5.516 7.298 7.208 15.75 3.892 21.964l2.08 1.486c5.81-8.16 1.61-21.24-9.35-29.95z" fill="#ad1457"/><path id="Shape" d="m41.61 31.73-24.43-17.41c6.1-8.55 16.5-11.58 23.25-6.77s7.27 15.64 1.18 24.18z" fill="#02a9f4"/><path id="Shape" d="m17.184 14.315-3.405 1.807c-.3345254.1774779-.7406042.1507672-1.049-.069l-2.754-1.963-2.753-1.964c-.30852704-.2196743-.46647424-.5947989-.408-.969l.6-3.807" fill="#fec108"/><path id="Shape" d="m51.38 38.7-3.4 1.8c-.3349697.1776018-.7415701.1504951-1.05-.07l-2.75-1.96-2.76-1.96c-.3057352-.2224714-.4634882-.5956919-.41-.97l.6-3.81z" fill="#ad1457"/><path id="Shape" d="m41.61 31.73-3.4 1.81c-.3358067.1736341-.7402138.1466736-1.05-.07l-8.46-6.03-3.25-2.32-8.46-6.03c-.3047421-.2226939-.4591903-.5972309-.4-.97l.59-3.8z" fill="#0377bc"/><path id="Shape" d="m40.43 7.55c-6.75-4.81-17.15-1.78-23.25 6.77l-9.77-6.97c5.81-8.15 19.56-8.44 31.35-.91.56.34 1.12.72 1.67 1.11z" fill="#ffdc00"/><path id="Shape" d="m44.38 5.46-2.35 3.29c-.52-.41-1.05-.81-1.6-1.2s-1.11-.77-1.67-1.11l2.36-3.31c.6460807-.89315847 1.8913914-1.09847851 2.79-.46.4367911.30397493.7296228.77395179.81 1.3.0916717.52218048-.0308865 1.05927385-.34 1.49z" fill="#9e9e9e"/><path id="Shape" d="m42.03 8.75-.01.01" fill="#e91e63"/><path id="Shape" d="m28.7 27.44-9.13 12.81-7.12 9.99c-.4144281.5823429-1.1080517.8993552-1.8195895.8316214-.71153779-.0677337-1.33289029-.5099233-1.63-1.16s-.2248386-1.4092785.1895895-1.9916214l4.91-6.88 11.35-15.92z" fill="#9e9e9e"/><circle id="Oval" cx="23.5" cy="51.5" fill="#dfc49c" r="2.5"/><g fill="#000"><path id="Shape" d="m25.05 60c14.018 0 25-4.612 25-10.5s-10.982-10.5-25-10.5c-1.138 0-2.286.044-3.435.108l7.323-10.273 7.639 5.446c.6161432.4432133 1.430815.4971368 2.1.139l1.638-.869-.288 1.832c-.1198702.748757.1966504 1.5004934.816 1.938l5.508 3.927c.6162556.4431259 1.431055.4966698 2.1.138l3.4-1.807c.1279894-.0695245.2387177-.1669243.324-.285.006-.007.016-.01.021-.018 3.141-4.4 3.669-10.244 1.49-16.442-2.1003472-5.5872308-5.6585899-10.5100708-10.305-14.257l1.811-2.541c.4639473-.64137697.6473095-1.44376678.508-2.223-.1194781-.79116086-.5564654-1.49936916-1.21-1.961-1.3485433-.96119688-3.220866-.64787489-4.183.7l-1.807 2.542c-5.0585663-3.17191485-10.8744553-4.93087339-16.843-5.094h-.157c-6.5 0-11.787 2.4-14.9 6.769-.006.009-.007.019-.013.028-.03459776.05950535-.06275671.12252776-.084.188-.02756023.0574668-.04965743.11739709-.066.179 0 .011-.009.019-.011.03l-.599 3.806c-.12052079.7491183.19609869 1.5014776.816 1.939l5.507 3.926c.6164227.4426601 1.4309503.4961862 2.1.138l1.637-.868-.287 1.833c-.1202749.7490888.1962917 1.5013224.816 1.939l7.638 5.445-10.547 14.8c-8.431 1.79-13.457 5.27-13.457 9.348 0 5.888 10.981 10.5 25 10.5zm-6.45-45.906c5.818-7.469 15.173-10.059 21.248-5.728s6.675 14.017 1.513 21.957l-11.382-8.115zm28.91 25.525-5.51-3.926.347-2.209 7.135 5.087zm3.607-2.341-8.143-5.8c3.719-5.683 4.714-12.212 3.1-17.482 2.4959921 2.7748146 4.4394305 6.0005286 5.726 9.504 1.819 5.171 1.57 10.021-.683 13.778zm-9.181-33.564c.1535619-.21489781.3870699-.35903856.648-.4.2612369-.04475353.5295553.01603174.746.169.2194256.15693572.3641954.39761555.4.665.0458236.25620449-.0152467.51999892-.169.73l-1.761 2.468c-.267-.2-.521-.414-.794-.609s-.557-.365-.834-.552zm-20.436-1.714h.149c3.7311224.07266353 7.4140603.85704005 10.851 2.311-5.507.194-11.355 3.264-15.516 8.633l-8.144-5.805c2.792-3.325 7.239-5.139 12.66-5.139zm-8.189 13.238-5.511-3.925.35-2.213 7.136 5.087zm4.61.831 10.9 7.768 10.9 7.768-1.976 1.048-9.445-6.729-2.272-1.624-8.451-6.025zm-6.284 33.591c-.2050726.2965477-.5539023.459742-.912972.4271189s-.6727767-.2560117-.8210472-.5846622c-.14827053-.3286505-.10814463-.7116707.1050192-1.0024567l4.919-6.9.009-.012 10.745-15.074 1.629 1.161zm.1-7.033-3.358 4.711c-.96180383 1.3495078-.64750771 3.2231961.70200005 4.1849999 1.34950775.9618039 3.22319605.6475078 4.18499995-.7019999l6.847-9.606c1.646-.137 3.3-.215 4.937-.215 13.758 0 23 4.4 23 8.5s-9.242 8.5-23 8.5-23-4.4-23-8.5c0-2.663 3.725-5.255 9.687-6.873z"/><circle id="Oval" cx="38" cy="48" r="1"/><circle id="Oval" cx="35" cy="46" r="1"/><circle id="Oval" cx="33" cy="49" r="1"/><path id="Shape" d="m23.5 55c1.9329966 0 3.5-1.5670034 3.5-3.5s-1.5670034-3.5-3.5-3.5-3.5 1.5670034-3.5 3.5 1.5670034 3.5 3.5 3.5zm0-5c.8284271 0 1.5.6715729 1.5 1.5s-.6715729 1.5-1.5 1.5-1.5-.6715729-1.5-1.5.6715729-1.5 1.5-1.5z"/></g></g></g></svg>